<svg width="800" height="600" viewBox="0 0 800 600" xmlns="http://www.w3.org/2000/svg" role="img" aria-label="Chef placeholder">
  <defs>
    <linearGradient id="g" x1="0" y1="0" x2="0" y2="1">
      <stop offset="0%" stop-color="#f3f4f6"/>
      <stop offset="100%" stop-color="#e5e7eb"/>
    </linearGradient>
  </defs>
  <rect width="800" height="600" fill="url(#g)"/>
  <!-- simple chef hat-ish shape -->
  <g fill="#d1d5db" transform="translate(250,170)">
    <path d="M150 0c-40 0-70 22-70 50 0 6 1 12 4 17-19 3-34 18-34 36 0 20 18 36 40 36h120c22 0 40-16 40-36 0-18-15-33-34-36 3-5 4-11 4-17 0-28-30-50-70-50z"/>
    <rect x="60" y="140" width="180" height="30" rx="8"/>
    <rect x="80" y="170" width="140" height="90" rx="10"/>
  </g>
  <text x="400" y="560" text-anchor="middle" font-family="system-ui, -apple-system, Segoe UI, Roboto, sans-serif" font-size="28" fill="#9ca3af">
    Photo coming soon
  </text>
</svg>
